<svg width="36" height="36" viewBox="0 0 36 36" fill="none" xmlns="http://www.w3.org/2000/svg">
<path d="M25.875 12.5958V11.8125C25.875 8.28563 20.5552 5.625 13.5 5.625C6.44484 5.625 1.125 8.28563 1.125 11.8125V17.4375C1.125 20.3752 4.81641 22.7095 10.125 23.4084V24.1875C10.125 27.7144 15.4448 30.375 22.5 30.375C29.5552 30.375 34.875 27.7144 34.875 24.1875V18.5625C34.875 15.6516 31.3003 13.3144 25.875 12.5958ZM32.625 18.5625C32.625 20.4216 28.2952 22.5 22.5 22.5C21.9755 22.5 21.4552 22.4817 20.9419 22.448C23.9752 21.3427 25.875 19.5469 25.875 17.4375V14.8697C30.0755 15.4955 32.625 17.1942 32.625 18.5625ZM10.125 21.1289V17.7834C11.2441 17.9293 12.3715 18.0016 13.5 18C14.6285 18.0016 15.7559 17.9293 16.875 17.7834V21.1289C15.7576 21.294 14.6295 21.3762 13.5 21.375C12.3705 21.3762 11.2424 21.294 10.125 21.1289ZM23.625 15.4589V17.4375C23.625 18.6173 21.8798 19.8844 19.125 20.6536V17.3672C20.9405 16.927 22.4775 16.2717 23.625 15.4589ZM13.5 7.875C19.2952 7.875 23.625 9.95344 23.625 11.8125C23.625 13.6716 19.2952 15.75 13.5 15.75C7.70484 15.75 3.375 13.6716 3.375 11.8125C3.375 9.95344 7.70484 7.875 13.5 7.875ZM3.375 17.4375V15.4589C4.5225 16.2717 6.05953 16.927 7.875 17.3672V20.6536C5.12016 19.8844 3.375 18.6173 3.375 17.4375ZM12.375 24.1875V23.6011C12.7448 23.6152 13.1189 23.625 13.5 23.625C14.0456 23.625 14.5786 23.6067 15.1017 23.5758C15.6829 23.7838 16.2748 23.9603 16.875 24.1045V27.4036C14.1202 26.6344 12.375 25.3673 12.375 24.1875ZM19.125 27.8789V24.525C20.2437 24.6754 21.3712 24.7506 22.5 24.75C23.6285 24.7516 24.7559 24.6793 25.875 24.5334V27.8789C23.637 28.207 21.363 28.207 19.125 27.8789ZM28.125 27.4036V24.1172C29.9405 23.677 31.4775 23.0217 32.625 22.2089V24.1875C32.625 25.3673 30.8798 26.6344 28.125 27.4036Z" fill="#D32B40"/>
</svg>
