<svg width="36" height="36" viewBox="0 0 36 36" fill="none" xmlns="http://www.w3.org/2000/svg">
<path d="M31.5 6.75H4.5C4.20163 6.75 3.91548 6.86853 3.7045 7.07951C3.49353 7.29048 3.375 7.57663 3.375 7.875V27C3.375 27.5967 3.61205 28.169 4.03401 28.591C4.45597 29.0129 5.02826 29.25 5.625 29.25H30.375C30.9717 29.25 31.544 29.0129 31.966 28.591C32.3879 28.169 32.625 27.5967 32.625 27V7.875C32.625 7.57663 32.5065 7.29048 32.2955 7.07951C32.0845 6.86853 31.7984 6.75 31.5 6.75ZM28.6073 9L18 18.7242L7.39266 9H28.6073ZM30.375 27H5.625V10.433L17.2392 21.0797C17.4468 21.2702 17.7183 21.3759 18 21.3759C18.2817 21.3759 18.5532 21.2702 18.7608 21.0797L30.375 10.433V27Z" fill="#D32B40"/>
</svg>
