<svg width="36" height="36" viewBox="0 0 36 36" fill="none" xmlns="http://www.w3.org/2000/svg">
<path d="M29.25 4.5H6.75C6.15326 4.5 5.58097 4.73705 5.15901 5.15901C4.73705 5.58097 4.5 6.15326 4.5 6.75V29.25C4.5 29.8467 4.73705 30.419 5.15901 30.841C5.58097 31.2629 6.15326 31.5 6.75 31.5H29.25C29.8467 31.5 30.419 31.2629 30.841 30.841C31.2629 30.419 31.5 29.8467 31.5 29.25V6.75C31.5 6.15326 31.2629 5.58097 30.841 5.15901C30.419 4.73705 29.8467 4.5 29.25 4.5ZM13.5 16.875C13.5 15.985 13.7639 15.115 14.2584 14.3749C14.7529 13.6349 15.4557 13.0581 16.2779 12.7175C17.1002 12.3769 18.005 12.2878 18.8779 12.4615C19.7508 12.6351 20.5526 13.0637 21.182 13.693C21.8113 14.3224 22.2399 15.1242 22.4135 15.9971C22.5872 16.87 22.4981 17.7748 22.1575 18.5971C21.8169 19.4193 21.2401 20.1221 20.5001 20.6166C19.76 21.1111 18.89 21.375 18 21.375C16.8065 21.375 15.6619 20.9009 14.818 20.057C13.9741 19.2131 13.5 18.0685 13.5 16.875ZM9.65672 29.25C10.2324 27.8327 11.158 26.5845 12.3469 25.6219C13.9476 24.3297 15.9428 23.6249 18 23.6249C20.0572 23.6249 22.0524 24.3297 23.6531 25.6219C24.842 26.5845 25.7676 27.8327 26.3433 29.25H9.65672ZM29.25 29.25H28.7339C28.2337 27.6577 27.385 26.1968 26.2495 24.9735C25.114 23.7502 23.7203 22.7952 22.1695 22.178C23.2735 21.3108 24.0797 20.121 24.4758 18.7742C24.8718 17.4274 24.8382 15.9906 24.3794 14.6638C23.9206 13.3371 23.0596 12.1864 21.9162 11.3719C20.7728 10.5574 19.4038 10.1197 18 10.1197C16.5962 10.1197 15.2272 10.5574 14.0838 11.3719C12.9404 12.1864 12.0794 13.3371 11.6206 14.6638C11.1618 15.9906 11.1282 17.4274 11.5242 18.7742C11.9203 20.121 12.7265 21.3108 13.8305 22.178C12.2797 22.7952 10.886 23.7502 9.75048 24.9735C8.615 26.1968 7.76631 27.6577 7.26609 29.25H6.75V6.75H29.25V29.25Z" fill="#D32B40"/>
</svg>
