<svg width="24" height="24" viewBox="0 0 24 24" fill="none" xmlns="http://www.w3.org/2000/svg">
<path d="M19.5 2H17.25V1.25C17.25 1.05109 17.171 0.860322 17.0303 0.71967C16.8897 0.579018 16.6989 0.5 16.5 0.5C16.3011 0.5 16.1103 0.579018 15.9697 0.71967C15.829 0.860322 15.75 1.05109 15.75 1.25V2H8.25V1.25C8.25 1.05109 8.17098 0.860322 8.03033 0.71967C7.88968 0.579018 7.69891 0.5 7.5 0.5C7.30109 0.5 7.11032 0.579018 6.96967 0.71967C6.82902 0.860322 6.75 1.05109 6.75 1.25V2H4.5C4.10218 2 3.72064 2.15804 3.43934 2.43934C3.15804 2.72064 3 3.10218 3 3.5V18.5C3 18.8978 3.15804 19.2794 3.43934 19.5607C3.72064 19.842 4.10218 20 4.5 20H19.5C19.8978 20 20.2794 19.842 20.5607 19.5607C20.842 19.2794 21 18.8978 21 18.5V3.5C21 3.10218 20.842 2.72064 20.5607 2.43934C20.2794 2.15804 19.8978 2 19.5 2ZM6.75 3.5V4.25C6.75 4.44891 6.82902 4.63968 6.96967 4.78033C7.11032 4.92098 7.30109 5 7.5 5C7.69891 5 7.88968 4.92098 8.03033 4.78033C8.17098 4.63968 8.25 4.44891 8.25 4.25V3.5H15.75V4.25C15.75 4.44891 15.829 4.63968 15.9697 4.78033C16.1103 4.92098 16.3011 5 16.5 5C16.6989 5 16.8897 4.92098 17.0303 4.78033C17.171 4.63968 17.25 4.44891 17.25 4.25V3.5H19.5V6.5H4.5V3.5H6.75ZM19.5 18.5H4.5V8H19.5V18.5Z" fill="#081F9C"/>
</svg>
