<svg width="54" height="54" viewBox="0 0 54 54" fill="none" xmlns="http://www.w3.org/2000/svg">
<path d="M36.6314 20.7436C36.7883 20.9003 36.9128 21.0864 36.9977 21.2913C37.0826 21.4961 37.1263 21.7157 37.1263 21.9375C37.1263 22.1593 37.0826 22.3789 36.9977 22.5837C36.9128 22.7886 36.7883 22.9747 36.6314 23.1314L24.8189 34.9439C24.6622 35.1008 24.4761 35.2253 24.2712 35.3102C24.0664 35.3951 23.8468 35.4388 23.625 35.4388C23.4032 35.4388 23.1837 35.3951 22.9788 35.3102C22.7739 35.2253 22.5878 35.1008 22.4311 34.9439L17.3686 29.8814C17.052 29.5648 16.8741 29.1353 16.8741 28.6875C16.8741 28.2397 17.052 27.8102 17.3686 27.4936C17.6852 27.177 18.1147 26.9991 18.5625 26.9991C19.0103 26.9991 19.4398 27.177 19.7564 27.4936L23.625 31.3643L34.2436 20.7436C34.4003 20.5867 34.5864 20.4622 34.7913 20.3773C34.9962 20.2924 35.2157 20.2487 35.4375 20.2487C35.6593 20.2487 35.8789 20.2924 36.0837 20.3773C36.2886 20.4622 36.4747 20.5867 36.6314 20.7436ZM48.9375 27C48.9375 31.3388 47.6509 35.5802 45.2404 39.1878C42.8299 42.7954 39.4037 45.6072 35.3951 47.2676C31.3866 48.928 26.9757 49.3624 22.7202 48.516C18.4648 47.6695 14.5559 45.5802 11.4879 42.5122C8.41984 39.4441 6.3305 35.5353 5.48403 31.2798C4.63757 27.0243 5.07201 22.6134 6.7324 18.6049C8.3928 14.5963 11.2046 11.1702 14.8122 8.75964C18.4198 6.34911 22.6612 5.0625 27 5.0625C32.8163 5.06864 38.3926 7.38188 42.5054 11.4946C46.6181 15.6074 48.9314 21.1837 48.9375 27ZM45.5625 27C45.5625 23.3287 44.4738 19.7398 42.4342 16.6872C40.3945 13.6346 37.4954 11.2554 34.1036 9.85049C30.7117 8.44553 26.9794 8.07794 23.3786 8.79417C19.7779 9.51041 16.4704 11.2783 13.8743 13.8743C11.2783 16.4703 9.51042 19.7779 8.79418 23.3786C8.07794 26.9794 8.44554 30.7117 9.8505 34.1036C11.2554 37.4954 13.6347 40.3945 16.6872 42.4342C19.7398 44.4738 23.3287 45.5625 27 45.5625C31.9214 45.5569 36.6396 43.5994 40.1195 40.1195C43.5994 36.6396 45.5569 31.9214 45.5625 27Z" fill="#28B71A"/>
</svg>
