<svg width="54" height="54" viewBox="0 0 54 54" fill="none" xmlns="http://www.w3.org/2000/svg">
<path d="M34.9439 21.4439L29.3857 27L34.9439 32.5561C35.1007 32.7129 35.2251 32.899 35.3099 33.1039C35.3948 33.3087 35.4384 33.5283 35.4384 33.75C35.4384 33.9717 35.3948 34.1913 35.3099 34.3961C35.2251 34.601 35.1007 34.7871 34.9439 34.9439C34.7871 35.1007 34.601 35.2251 34.3961 35.3099C34.1913 35.3948 33.9717 35.4384 33.75 35.4384C33.5283 35.4384 33.3087 35.3948 33.1039 35.3099C32.899 35.2251 32.7129 35.1007 32.5561 34.9439L27 29.3857L21.4439 34.9439C21.2871 35.1007 21.101 35.2251 20.8961 35.3099C20.6913 35.3948 20.4717 35.4384 20.25 35.4384C20.0283 35.4384 19.8087 35.3948 19.6039 35.3099C19.399 35.2251 19.2129 35.1007 19.0561 34.9439C18.8993 34.7871 18.7749 34.601 18.6901 34.3961C18.6052 34.1913 18.5616 33.9717 18.5616 33.75C18.5616 33.5283 18.6052 33.3087 18.6901 33.1039C18.7749 32.899 18.8993 32.7129 19.0561 32.5561L24.6143 27L19.0561 21.4439C18.7395 21.1273 18.5616 20.6978 18.5616 20.25C18.5616 19.8022 18.7395 19.3727 19.0561 19.0561C19.3727 18.7394 19.8022 18.5616 20.25 18.5616C20.6978 18.5616 21.1273 18.7394 21.4439 19.0561L27 24.6143L32.5561 19.0561C32.7129 18.8993 32.899 18.7749 33.1039 18.6901C33.3087 18.6052 33.5283 18.5616 33.75 18.5616C33.9717 18.5616 34.1913 18.6052 34.3961 18.6901C34.601 18.7749 34.7871 18.8993 34.9439 19.0561C35.1007 19.2129 35.2251 19.399 35.3099 19.6039C35.3948 19.8087 35.4384 20.0283 35.4384 20.25C35.4384 20.4717 35.3948 20.6913 35.3099 20.8961C35.2251 21.101 35.1007 21.2871 34.9439 21.4439ZM48.9375 27C48.9375 31.3388 47.6509 35.5802 45.2404 39.1878C42.8298 42.7954 39.4037 45.6072 35.3951 47.2676C31.3866 48.928 26.9757 49.3624 22.7202 48.516C18.4648 47.6695 14.5559 45.5802 11.4879 42.5122C8.41984 39.4441 6.3305 35.5353 5.48403 31.2798C4.63757 27.0243 5.07201 22.6134 6.7324 18.6049C8.3928 14.5963 11.2046 11.1702 14.8122 8.75964C18.4198 6.34911 22.6612 5.0625 27 5.0625C32.8163 5.06864 38.3926 7.38188 42.5054 11.4946C46.6181 15.6074 48.9314 21.1837 48.9375 27ZM45.5625 27C45.5625 23.3287 44.4738 19.7398 42.4342 16.6872C40.3945 13.6346 37.4954 11.2554 34.1036 9.85049C30.7117 8.44553 26.9794 8.07793 23.3786 8.79417C19.7779 9.51041 16.4704 11.2783 13.8743 13.8743C11.2783 16.4703 9.51042 19.7779 8.79418 23.3786C8.07794 26.9794 8.44554 30.7117 9.8505 34.1036C11.2554 37.4954 13.6346 40.3945 16.6872 42.4342C19.7398 44.4738 23.3287 45.5625 27 45.5625C31.9214 45.5569 36.6396 43.5994 40.1195 40.1195C43.5994 36.6396 45.5569 31.9214 45.5625 27Z" fill="#D32B40"/>
</svg>
