<svg width="36" height="36" viewBox="0 0 36 36" fill="none" xmlns="http://www.w3.org/2000/svg">
<path d="M20.288 6.4589C20.3262 6.31612 20.3921 6.18227 20.482 6.06499C20.572 5.94771 20.6841 5.84931 20.8121 5.77539C20.9401 5.70147 21.0814 5.6535 21.2279 5.63421C21.3745 5.61492 21.5234 5.62469 21.6661 5.66296C23.7517 6.20711 25.6545 7.29737 27.1786 8.82145C28.7026 10.3455 29.7929 12.2483 30.337 14.3339C30.3753 14.4766 30.3851 14.6255 30.3658 14.7721C30.3465 14.9186 30.2985 15.0599 30.2246 15.1879C30.1507 15.3159 30.0523 15.428 29.935 15.518C29.8177 15.6079 29.6839 15.6738 29.5411 15.712C29.4461 15.737 29.3483 15.7497 29.25 15.75C29.0021 15.75 28.7611 15.6681 28.5646 15.517C28.368 15.366 28.2268 15.1542 28.163 14.9147C27.7192 13.2122 26.8294 11.6588 25.5853 10.4147C24.3412 9.17062 22.7878 8.28082 21.0853 7.83702C20.9424 7.79898 20.8084 7.73315 20.691 7.64328C20.5736 7.55341 20.475 7.44126 20.4009 7.31327C20.3269 7.18527 20.2788 7.04393 20.2594 6.89733C20.24 6.75073 20.2497 6.60174 20.288 6.4589ZM19.9603 12.337C21.8995 12.8545 23.1455 14.1005 23.663 16.0397C23.7268 16.2792 23.868 16.491 24.0646 16.642C24.2611 16.7931 24.5021 16.875 24.75 16.875C24.8483 16.8747 24.9461 16.862 25.0411 16.837C25.1839 16.7988 25.3177 16.7329 25.435 16.643C25.5523 16.553 25.6507 16.4409 25.7246 16.3129C25.7985 16.1849 25.8465 16.0436 25.8658 15.8971C25.8851 15.7505 25.8753 15.6016 25.837 15.4589C25.117 12.7645 23.2355 10.883 20.5411 10.163C20.2528 10.0859 19.9457 10.1266 19.6874 10.276C19.4291 10.4254 19.2407 10.6713 19.1637 10.9596C19.0867 11.2479 19.1273 11.555 19.2767 11.8133C19.4261 12.0716 19.672 12.26 19.9603 12.337ZM31.4831 25.7456C31.2324 27.6511 30.2966 29.4002 28.8505 30.6662C27.4044 31.9321 25.5469 32.6284 23.625 32.625C12.4594 32.625 3.37501 23.5406 3.37501 12.375C3.37157 10.4531 4.06785 8.59558 5.33382 7.1495C6.5998 5.70341 8.34888 4.76761 10.2544 4.51687C10.7362 4.45803 11.2242 4.55661 11.6454 4.79789C12.0667 5.03917 12.3986 5.41021 12.5916 5.85562L15.5616 12.4861V12.503C15.7094 12.8439 15.7704 13.2162 15.7392 13.5864C15.7081 13.9567 15.5857 14.3135 15.383 14.625C15.3577 14.663 15.3309 14.6981 15.3028 14.7333L12.375 18.2039C13.4283 20.3442 15.667 22.5633 17.8355 23.6194L21.2583 20.707C21.2919 20.6788 21.3271 20.6525 21.3638 20.6283C21.675 20.4207 22.033 20.294 22.4055 20.2596C22.7779 20.2253 23.1531 20.2843 23.497 20.4314L23.5153 20.4398L30.1402 23.4084C30.5864 23.6008 30.9583 23.9324 31.2004 24.3537C31.4425 24.7749 31.5417 25.2633 31.4831 25.7456ZM29.25 25.4644C29.25 25.4644 29.2402 25.4644 29.2345 25.4644L22.6252 22.5042L19.2009 25.4166C19.1677 25.4447 19.133 25.471 19.0969 25.4953C18.7731 25.7113 18.3988 25.8396 18.0106 25.8677C17.6224 25.8958 17.2336 25.8227 16.882 25.6556C14.2481 24.383 11.6227 21.7772 10.3486 19.1714C10.1799 18.8224 10.1042 18.4358 10.1288 18.049C10.1535 17.6622 10.2776 17.2883 10.4892 16.9636C10.5131 16.9255 10.5399 16.8893 10.5694 16.8553L13.5 13.3805L10.5469 6.77108C10.5463 6.76547 10.5463 6.75982 10.5469 6.75421C9.18318 6.9321 7.93109 7.601 7.02509 8.63565C6.11909 9.6703 5.62133 10.9997 5.62501 12.375C5.63022 17.1473 7.52832 21.7226 10.9028 25.0972C14.2774 28.4717 18.8527 30.3698 23.625 30.375C24.9994 30.3797 26.3285 29.8837 27.3637 28.9797C28.399 28.0756 29.0695 26.8255 29.25 25.463V25.4644Z" fill="#D32B40"/>
</svg>
