<svg width="36" height="36" viewBox="0 0 36 36" fill="none" xmlns="http://www.w3.org/2000/svg">
<path d="M31.125 7H4.125C3.82663 7 3.54048 7.11853 3.3295 7.32951C3.11853 7.54048 3 7.82663 3 8.125V27.25C3 27.8467 3.23705 28.419 3.65901 28.841C4.08097 29.2629 4.65326 29.5 5.25 29.5H30C30.5967 29.5 31.169 29.2629 31.591 28.841C32.0129 28.419 32.25 27.8467 32.25 27.25V8.125C32.25 7.82663 32.1315 7.54048 31.9205 7.32951C31.7095 7.11853 31.4234 7 31.125 7ZM5.25 16H10.875V20.5H5.25V16ZM13.125 16H30V20.5H13.125V16ZM30 9.25V13.75H5.25V9.25H30ZM5.25 22.75H10.875V27.25H5.25V22.75ZM30 27.25H13.125V22.75H30V27.25Z" fill="#D32B40"/>
</svg>
