<svg width="36" height="36" viewBox="0 0 36 36" fill="none" xmlns="http://www.w3.org/2000/svg">
<path d="M34.4249 21.15C34.3068 21.2386 34.1723 21.3031 34.0291 21.3398C33.886 21.3765 33.7371 21.3846 33.5908 21.3637C33.4446 21.3428 33.3039 21.2933 33.1768 21.218C33.0496 21.1428 32.9386 21.0432 32.8499 20.925C32.1719 20.0136 31.2893 19.2741 30.2732 18.766C29.2571 18.258 28.1359 17.9956 26.9999 18C26.7787 18 26.5624 17.9347 26.3781 17.8124C26.1937 17.6901 26.0495 17.5162 25.9635 17.3124C25.9051 17.1739 25.875 17.0252 25.875 16.875C25.875 16.7248 25.9051 16.5761 25.9635 16.4377C26.0495 16.2338 26.1937 16.0599 26.3781 15.9376C26.5624 15.8153 26.7787 15.75 26.9999 15.75C27.6312 15.75 28.2497 15.5729 28.7854 15.2389C29.321 14.9049 29.7522 14.4274 30.0301 13.8606C30.3079 13.2938 30.4213 12.6605 30.3572 12.0325C30.2932 11.4046 30.0543 10.8071 29.6677 10.3081C29.2812 9.80912 28.7624 9.42852 28.1704 9.20956C27.5783 8.9906 26.9368 8.94206 26.3185 9.06945C25.7003 9.19684 25.1302 9.49506 24.6729 9.93023C24.2157 10.3654 23.8896 10.9201 23.7318 11.5313C23.6949 11.6744 23.6301 11.8088 23.5412 11.9269C23.4523 12.045 23.3411 12.1444 23.2137 12.2195C23.0864 12.2946 22.9456 12.3439 22.7992 12.3645C22.6528 12.3852 22.5038 12.3768 22.3607 12.3399C22.2176 12.3029 22.0832 12.2382 21.9651 12.1493C21.847 12.0604 21.7475 11.9491 21.6725 11.8218C21.5974 11.6945 21.5481 11.5536 21.5275 11.4072C21.5068 11.2609 21.5152 11.1119 21.5521 10.9688C21.7712 10.1212 22.185 9.33652 22.7606 8.67706C23.3363 8.01761 24.0579 7.50161 24.8681 7.17012C25.6783 6.83864 26.5547 6.70082 27.4275 6.76763C28.3003 6.83444 29.1455 7.10403 29.8958 7.55496C30.6461 8.00589 31.2808 8.62571 31.7494 9.3651C32.218 10.1045 32.5075 10.943 32.595 11.814C32.6825 12.685 32.5655 13.5644 32.2533 14.3822C31.9412 15.2 31.4424 15.9337 30.7968 16.5249C32.3265 17.1872 33.6564 18.2382 34.6542 19.5736C34.7428 19.6921 34.8072 19.8269 34.8436 19.9703C34.8801 20.1137 34.8879 20.2629 34.8666 20.4094C34.8453 20.5558 34.7953 20.6966 34.7196 20.8237C34.6438 20.9508 34.5437 21.0617 34.4249 21.15ZM26.8481 29.8125C26.9295 29.9406 26.9841 30.0837 27.0087 30.2335C27.0334 30.3832 27.0275 30.5363 26.9914 30.6837C26.9553 30.8311 26.8897 30.9696 26.7987 31.091C26.7077 31.2124 26.593 31.3141 26.4617 31.39C26.3303 31.466 26.1849 31.5145 26.0343 31.5328C25.8837 31.5511 25.7309 31.5388 25.5852 31.4965C25.4395 31.4542 25.3038 31.3829 25.1864 31.2868C25.0689 31.1908 24.9721 31.0719 24.9018 30.9375C24.1931 29.7375 23.1838 28.743 21.9735 28.0522C20.7631 27.3613 19.3936 26.998 17.9999 26.998C16.6063 26.998 15.2367 27.3613 14.0264 28.0522C12.8161 28.743 11.8067 29.7375 11.0981 30.9375C11.0277 31.0719 10.9309 31.1908 10.8135 31.2868C10.696 31.3829 10.5604 31.4542 10.4147 31.4965C10.2689 31.5388 10.1162 31.5511 9.96556 31.5328C9.81494 31.5145 9.66958 31.466 9.53822 31.39C9.40686 31.3141 9.29221 31.2124 9.20118 31.091C9.11015 30.9696 9.04462 30.8311 9.00852 30.6837C8.97242 30.5363 8.96651 30.3832 8.99113 30.2335C9.01576 30.0837 9.07042 29.9406 9.15181 29.8125C10.2425 27.9385 11.9055 26.4638 13.8965 25.605C12.7762 24.7472 11.9528 23.56 11.5422 22.2101C11.1315 20.8602 11.1542 19.4155 11.607 18.0792C12.0598 16.7428 12.9201 15.582 14.0668 14.7598C15.2134 13.9377 16.589 13.4955 17.9999 13.4955C19.4109 13.4955 20.7864 13.9377 21.9331 14.7598C23.0798 15.582 23.94 16.7428 24.3929 18.0792C24.8457 19.4155 24.8684 20.8602 24.4577 22.2101C24.0471 23.56 23.2237 24.7472 22.1034 25.605C24.0944 26.4638 25.7574 27.9385 26.8481 29.8125ZM17.9999 24.75C18.89 24.75 19.76 24.4861 20.5 23.9916C21.24 23.4972 21.8168 22.7943 22.1574 21.9721C22.498 21.1498 22.5871 20.245 22.4135 19.3721C22.2398 18.4992 21.8113 17.6974 21.1819 17.068C20.5526 16.4387 19.7508 16.0101 18.8778 15.8365C18.0049 15.6628 17.1001 15.752 16.2779 16.0925C15.4556 16.4331 14.7528 17.0099 14.2583 17.7499C13.7639 18.49 13.4999 19.36 13.4999 20.25C13.4999 21.4435 13.974 22.5881 14.818 23.432C15.6619 24.2759 16.8065 24.75 17.9999 24.75ZM10.1249 16.875C10.1249 16.5766 10.0064 16.2905 9.79543 16.0795C9.58445 15.8685 9.29831 15.75 8.99994 15.75C8.36871 15.75 7.75015 15.5729 7.21452 15.2389C6.67889 14.9049 6.24765 14.4274 5.9698 13.8606C5.69194 13.2938 5.5786 12.6605 5.64265 12.0325C5.70671 11.4046 5.94558 10.8071 6.33215 10.3081C6.71872 9.80912 7.23748 9.42852 7.82952 9.20956C8.42155 8.9906 9.06312 8.94206 9.68136 9.06945C10.2996 9.19684 10.8697 9.49506 11.327 9.93023C11.7842 10.3654 12.1103 10.9201 12.2681 11.5313C12.3427 11.8203 12.529 12.0679 12.7861 12.2195C13.0433 12.3712 13.3501 12.4144 13.6392 12.3399C13.9282 12.2653 14.1758 12.0789 14.3274 11.8218C14.4791 11.5646 14.5223 11.2578 14.4478 10.9688C14.2287 10.1212 13.8149 9.33652 13.2392 8.67706C12.6636 8.01761 11.9419 7.50161 11.1317 7.17012C10.3216 6.83864 9.4452 6.70082 8.57238 6.76763C7.69956 6.83444 6.85438 7.10403 6.10408 7.55496C5.35379 8.00589 4.7191 8.62571 4.2505 9.3651C3.7819 10.1045 3.49234 10.943 3.40485 11.814C3.31736 12.685 3.43435 13.5644 3.74653 14.3822C4.05871 15.2 4.55745 15.9337 5.20306 16.5249C3.67487 17.1878 2.34657 18.2388 1.34994 19.5736C1.17073 19.8123 1.09368 20.1124 1.13575 20.4079C1.17781 20.7034 1.33554 20.9701 1.57424 21.1493C1.81293 21.3285 2.11304 21.4056 2.40854 21.3635C2.70404 21.3214 2.97073 21.1637 3.14994 20.925C3.82801 20.0136 4.71061 19.2741 5.72669 18.766C6.74277 18.258 7.86394 17.9956 8.99994 18C9.29831 18 9.58445 17.8815 9.79543 17.6705C10.0064 17.4595 10.1249 17.1734 10.1249 16.875Z" fill="#D32B40"/>
</svg>
