<svg width="36" height="36" viewBox="0 0 36 36" fill="none" xmlns="http://www.w3.org/2000/svg">
<path d="M4.5 9C4.5 8.70163 4.61853 8.41548 4.82951 8.20451C5.04048 7.99353 5.32663 7.875 5.625 7.875H30.375C30.6734 7.875 30.9595 7.99353 31.1705 8.20451C31.3815 8.41548 31.5 8.70163 31.5 9C31.5 9.29837 31.3815 9.58452 31.1705 9.79549C30.9595 10.0065 30.6734 10.125 30.375 10.125H5.625C5.32663 10.125 5.04048 10.0065 4.82951 9.79549C4.61853 9.58452 4.5 9.29837 4.5 9ZM5.625 19.125H15.75C16.0484 19.125 16.3345 19.0065 16.5455 18.7955C16.7565 18.5845 16.875 18.2984 16.875 18C16.875 17.7016 16.7565 17.4155 16.5455 17.2045C16.3345 16.9935 16.0484 16.875 15.75 16.875H5.625C5.32663 16.875 5.04048 16.9935 4.82951 17.2045C4.61853 17.4155 4.5 17.7016 4.5 18C4.5 18.2984 4.61853 18.5845 4.82951 18.7955C5.04048 19.0065 5.32663 19.125 5.625 19.125ZM18 25.875H5.625C5.32663 25.875 5.04048 25.9935 4.82951 26.2045C4.61853 26.4155 4.5 26.7016 4.5 27C4.5 27.2984 4.61853 27.5845 4.82951 27.7955C5.04048 28.0065 5.32663 28.125 5.625 28.125H18C18.2984 28.125 18.5845 28.0065 18.7955 27.7955C19.0065 27.5845 19.125 27.2984 19.125 27C19.125 26.7016 19.0065 26.4155 18.7955 26.2045C18.5845 25.9935 18.2984 25.875 18 25.875ZM33.4209 27.7959C33.3165 27.9005 33.1924 27.9835 33.0558 28.0401C32.9192 28.0967 32.7728 28.1259 32.625 28.1259C32.4772 28.1259 32.3308 28.0967 32.1942 28.0401C32.0576 27.9835 31.9335 27.9005 31.8291 27.7959L28.9688 24.9412C27.8055 25.7087 26.3989 26.017 25.0213 25.8065C23.6438 25.596 22.3934 24.8816 21.5125 23.8018C20.6315 22.722 20.1828 21.3536 20.2532 19.9618C20.3236 18.5701 20.9082 17.254 21.8936 16.2686C22.879 15.2832 24.1951 14.6986 25.5868 14.6282C26.9786 14.5578 28.347 15.0065 29.4268 15.8875C30.5066 16.7684 31.221 18.0188 31.4315 19.3963C31.642 20.7739 31.3337 22.1805 30.5662 23.3438L33.4209 26.1984C33.5264 26.303 33.6101 26.4274 33.6672 26.5645C33.7243 26.7016 33.7537 26.8487 33.7537 26.9972C33.7537 27.1457 33.7243 27.2927 33.6672 27.4298C33.6101 27.5669 33.5264 27.6914 33.4209 27.7959ZM25.875 23.625C26.5425 23.625 27.195 23.4271 27.75 23.0562C28.3051 22.6854 28.7376 22.1583 28.9931 21.5416C29.2485 20.9249 29.3154 20.2463 29.1852 19.5916C29.0549 18.9369 28.7335 18.3355 28.2615 17.8635C27.7895 17.3915 27.1881 17.0701 26.5334 16.9398C25.8787 16.8096 25.2001 16.8765 24.5834 17.1319C23.9667 17.3874 23.4396 17.8199 23.0688 18.375C22.6979 18.93 22.5 19.5825 22.5 20.25C22.5 21.1451 22.8556 22.0036 23.4885 22.6365C24.1214 23.2694 24.9799 23.625 25.875 23.625Z" fill="#D32B40"/>
</svg>
