<svg width="36" height="36" viewBox="0 0 36 36" fill="none" xmlns="http://www.w3.org/2000/svg">
<path d="M24.7502 32.6251C24.7502 32.9234 24.6317 33.2096 24.4207 33.4205C24.2097 33.6315 23.9236 33.7501 23.6252 33.7501H12.3752C12.0768 33.7501 11.7907 33.6315 11.5797 33.4205C11.3687 33.2096 11.2502 32.9234 11.2502 32.6251C11.2502 32.3267 11.3687 32.0405 11.5797 31.8296C11.7907 31.6186 12.0768 31.5001 12.3752 31.5001H23.6252C23.9236 31.5001 24.2097 31.6186 24.4207 31.8296C24.6317 32.0405 24.7502 32.3267 24.7502 32.6251ZM30.3752 14.6251C30.38 16.5005 29.9564 18.3522 29.1365 20.039C28.3167 21.7257 27.1223 23.2029 25.6446 24.3577C25.3683 24.5695 25.144 24.8417 24.989 25.1534C24.834 25.4651 24.7523 25.8082 24.7502 26.1563V27.0001C24.7502 27.5968 24.5131 28.1691 24.0912 28.591C23.6692 29.013 23.0969 29.2501 22.5002 29.2501H13.5002C12.9034 29.2501 12.3312 29.013 11.9092 28.591C11.4872 28.1691 11.2502 27.5968 11.2502 27.0001V26.1563C11.25 25.8123 11.1709 25.473 11.019 25.1644C10.8671 24.8557 10.6465 24.586 10.3741 24.376C8.90006 23.228 7.7065 21.7597 6.88375 20.0823C6.061 18.4049 5.63062 16.5623 5.62518 14.694C5.58862 7.99177 11.0055 2.41036 17.7021 2.25005C19.3521 2.21029 20.9934 2.501 22.5294 3.10508C24.0654 3.70915 25.465 4.61438 26.6459 5.76749C27.8268 6.9206 28.765 8.29829 29.4055 9.81946C30.046 11.3406 30.3757 12.9746 30.3752 14.6251ZM28.1252 14.6251C28.1256 13.2746 27.8558 11.9377 27.3317 10.693C26.8077 9.44837 26.0399 8.32114 25.0737 7.37768C24.1074 6.43421 22.9622 5.69359 21.7054 5.19939C20.4485 4.70519 19.1056 4.46742 17.7555 4.50005C12.2711 4.62943 7.84565 9.19552 7.87518 14.6799C7.88032 16.2079 8.23293 17.7147 8.90632 19.0864C9.57971 20.458 10.5563 21.6585 11.7621 22.5971C12.3041 23.0185 12.7425 23.5583 13.0438 24.1752C13.3451 24.7921 13.5012 25.4698 13.5002 26.1563V27.0001H22.5002V26.1563C22.5017 25.4678 22.6605 24.7887 22.9644 24.1709C23.2683 23.5531 23.7093 23.0129 24.2538 22.5915C25.4633 21.6462 26.4408 20.4371 27.1118 19.0565C27.7827 17.6758 28.1294 16.1601 28.1252 14.6251ZM25.8597 13.3116C25.568 11.6822 24.7841 10.1813 23.6134 9.01088C22.4428 7.8405 20.9417 7.05689 19.3122 6.76552C19.1665 6.74096 19.0174 6.74534 18.8734 6.77841C18.7294 6.81147 18.5933 6.87258 18.4729 6.95824C18.3525 7.04391 18.2501 7.15244 18.1717 7.27766C18.0932 7.40287 18.0402 7.54231 18.0157 7.68802C17.9911 7.83373 17.9955 7.98284 18.0285 8.12686C18.0616 8.27087 18.1227 8.40696 18.2084 8.52736C18.294 8.64776 18.4026 8.7501 18.5278 8.82855C18.653 8.907 18.7924 8.96002 18.9382 8.98458C21.2683 9.37693 23.2455 11.3541 23.6407 13.6885C23.6852 13.9505 23.821 14.1883 24.0241 14.3597C24.2272 14.5312 24.4844 14.6252 24.7502 14.6251C24.8138 14.6247 24.8772 14.6195 24.94 14.6096C25.2341 14.5594 25.4962 14.3944 25.6686 14.151C25.8411 13.9076 25.9098 13.6057 25.8597 13.3116Z" fill="#D32B40"/>
</svg>
