<svg width="36" height="36" viewBox="0 0 36 36" fill="none" xmlns="http://www.w3.org/2000/svg">
<path d="M33.7501 7.875V16.875C33.7501 17.1734 33.6316 17.4595 33.4206 17.6705C33.2097 17.8815 32.9235 18 32.6251 18C32.3268 18 32.0406 17.8815 31.8296 17.6705C31.6187 17.4595 31.5001 17.1734 31.5001 16.875V10.5905L19.9211 22.1709C19.8166 22.2755 19.6925 22.3585 19.5559 22.4151C19.4194 22.4717 19.273 22.5009 19.1251 22.5009C18.9773 22.5009 18.8309 22.4717 18.6943 22.4151C18.5578 22.3585 18.4337 22.2755 18.3292 22.1709L13.5001 17.3405L4.17107 26.6709C3.95998 26.882 3.67367 27.0006 3.37514 27.0006C3.0766 27.0006 2.7903 26.882 2.5792 26.6709C2.3681 26.4598 2.24951 26.1735 2.24951 25.875C2.24951 25.5765 2.3681 25.2902 2.5792 25.0791L12.7042 14.9541C12.8087 14.8495 12.9328 14.7665 13.0693 14.7099C13.2059 14.6533 13.3523 14.6241 13.5001 14.6241C13.648 14.6241 13.7944 14.6533 13.9309 14.7099C14.0675 14.7665 14.1916 14.8495 14.2961 14.9541L19.1251 19.7845L29.9097 9H23.6251C23.3268 9 23.0406 8.88147 22.8296 8.67049C22.6187 8.45952 22.5001 8.17337 22.5001 7.875C22.5001 7.57663 22.6187 7.29048 22.8296 7.07951C23.0406 6.86853 23.3268 6.75 23.6251 6.75H32.6251C32.9235 6.75 33.2097 6.86853 33.4206 7.07951C33.6316 7.29048 33.7501 7.57663 33.7501 7.875Z" fill="#D32B40"/>
</svg>
