<svg width="36" height="36" viewBox="0 0 36 36" fill="none" xmlns="http://www.w3.org/2000/svg">
<path d="M35.7608 15.1749L32.172 7.99456C32.0398 7.73027 31.8568 7.49462 31.6335 7.30106C31.4103 7.1075 31.151 6.95982 30.8707 6.86645C30.5903 6.77308 30.2943 6.73585 29.9995 6.7569C29.7048 6.77794 29.417 6.85684 29.1528 6.98909L25.6554 8.73706L18.2881 6.78799C18.0991 6.7388 17.9006 6.7388 17.7115 6.78799L10.3442 8.73706L6.84685 6.98909C6.58259 6.85684 6.29486 6.77794 6.00011 6.7569C5.70535 6.73585 5.40934 6.77308 5.12897 6.86645C4.84861 6.95982 4.58938 7.1075 4.36609 7.30106C4.14281 7.49462 3.95983 7.73027 3.82763 7.99456L0.238879 15.1735C0.10663 15.4377 0.0277309 15.7254 0.00668843 16.0202C-0.014354 16.315 0.022872 16.611 0.116241 16.8913C0.209609 17.1717 0.357291 17.4309 0.550853 17.6542C0.744416 17.8775 0.980066 18.0605 1.24435 18.1927L5.04122 20.0925L12.8445 25.6655C12.9595 25.7473 13.0887 25.8069 13.2256 25.8413L22.2256 28.0913C22.4141 28.1385 22.6116 28.1362 22.7989 28.0844C22.9862 28.0327 23.1569 27.9333 23.2943 27.796L31.0386 20.0503L34.7539 18.1927C35.2873 17.9257 35.6928 17.4578 35.8813 16.8919C36.0699 16.326 36.026 15.7084 35.7593 15.1749H35.7608ZM28.0418 19.8675L23.2029 15.9919C22.9862 15.8183 22.7128 15.731 22.4356 15.7468C22.1583 15.7627 21.8967 15.8805 21.7011 16.0777C19.1965 18.6005 16.4051 18.2813 14.6248 17.1563L20.7054 11.25H25.1787L29.0051 18.9014L28.0418 19.8675ZM5.83997 9.00003L8.71857 10.4372L5.12279 17.6161L2.24982 16.1803L5.83997 9.00003ZM22.1525 25.7527L13.9808 23.7108L7.062 18.7692L10.9995 10.8942L17.9998 9.0394L19.3779 9.40362L13.0498 15.5461L13.0386 15.5588C12.8004 15.797 12.6187 16.0856 12.5069 16.4035C12.3952 16.7213 12.3562 17.0601 12.393 17.395C12.4297 17.7298 12.5411 18.0522 12.7191 18.3383C12.897 18.6243 13.1369 18.8667 13.4211 19.0477C16.3123 20.8941 19.8012 20.5946 22.549 18.3446L26.4373 21.4678L22.1525 25.7527ZM30.8712 17.6147L27.2825 10.4428L30.1597 9.00003L33.7498 16.1803L30.8712 17.6147ZM18.5314 30.6464C18.4706 30.8896 18.3304 31.1055 18.1329 31.2599C17.9355 31.4142 17.6922 31.4983 17.4415 31.4986C17.3491 31.4985 17.257 31.4872 17.1673 31.4649L11.3075 29.9996C11.1704 29.9657 11.0411 29.9061 10.9264 29.8238L7.22091 27.1772C6.99307 26.9983 6.84302 26.7384 6.80199 26.4517C6.76097 26.1649 6.83214 25.8734 7.00068 25.6378C7.16922 25.4022 7.42215 25.2407 7.70679 25.1869C7.99142 25.1331 8.28584 25.1912 8.52872 25.3491L12.0598 27.8719L17.7186 29.2838C18.008 29.3562 18.2568 29.5405 18.4102 29.7963C18.5637 30.0521 18.6093 30.3584 18.537 30.6478L18.5314 30.6464Z" fill="#D32B40"/>
</svg>
