<svg width="36" height="36" viewBox="0 0 36 36" fill="none" xmlns="http://www.w3.org/2000/svg">
<path d="M28.125 11.2501H25.875V9.00007C25.874 8.08645 25.5949 7.19479 25.0748 6.44363C24.5548 5.69247 23.8184 5.1174 22.9636 4.79487C22.1088 4.47234 21.1761 4.41763 20.2895 4.63802C19.4028 4.85841 18.6043 5.34345 18 6.02866C17.4241 5.37591 16.6712 4.90421 15.8326 4.67073C14.994 4.43725 14.1057 4.45201 13.2753 4.71322C12.4449 4.97444 11.7081 5.47089 11.1542 6.14242C10.6003 6.81395 10.253 7.63172 10.1545 8.49663C9.47107 8.09508 8.69367 7.8812 7.901 7.87662C7.10833 7.87204 6.32851 8.07693 5.64046 8.47055C4.9524 8.86417 4.38054 9.43256 3.98272 10.1182C3.58491 10.8038 3.37526 11.5824 3.375 12.3751V18.0001C3.375 21.8789 4.91584 25.5988 7.65856 28.3415C10.4013 31.0842 14.1212 32.6251 18 32.6251C21.8788 32.6251 25.5987 31.0842 28.3414 28.3415C31.0842 25.5988 32.625 21.8789 32.625 18.0001V15.7501C32.625 14.5566 32.1509 13.412 31.307 12.5681C30.4631 11.7242 29.3185 11.2501 28.125 11.2501ZM21.375 6.75007C21.9717 6.75007 22.544 6.98712 22.966 7.40908C23.3879 7.83103 23.625 8.40333 23.625 9.00007V11.2501H19.125V9.00007C19.125 8.40333 19.3621 7.83103 19.784 7.40908C20.206 6.98712 20.7783 6.75007 21.375 6.75007ZM12.375 9.00007C12.375 8.40333 12.6121 7.83103 13.034 7.40908C13.456 6.98712 14.0283 6.75007 14.625 6.75007C15.2217 6.75007 15.794 6.98712 16.216 7.40908C16.6379 7.83103 16.875 8.40333 16.875 9.00007V14.6251C16.875 15.2218 16.6379 15.7941 16.216 16.2161C15.794 16.638 15.2217 16.8751 14.625 16.8751C14.0283 16.8751 13.456 16.638 13.034 16.2161C12.6121 15.7941 12.375 15.2218 12.375 14.6251V9.00007ZM5.625 12.3751C5.625 11.7783 5.86205 11.206 6.28401 10.7841C6.70597 10.3621 7.27826 10.1251 7.875 10.1251C8.47174 10.1251 9.04403 10.3621 9.46599 10.7841C9.88795 11.206 10.125 11.7783 10.125 12.3751V14.6251C10.125 15.2218 9.88795 15.7941 9.46599 16.2161C9.04403 16.638 8.47174 16.8751 7.875 16.8751C7.27826 16.8751 6.70597 16.638 6.28401 16.2161C5.86205 15.7941 5.625 15.2218 5.625 14.6251V12.3751ZM30.375 18.0001C30.3749 21.2364 29.1071 24.344 26.8431 26.6566C24.5792 28.9693 21.4993 30.3031 18.2637 30.372C15.0281 30.441 11.8942 29.2397 9.5338 27.0256C7.17337 24.8115 5.77422 21.7608 5.63625 18.5274C6.53548 19.0446 7.58605 19.2345 8.60942 19.0647C9.63279 18.895 10.5658 18.3762 11.25 17.5965C12.0253 18.4799 13.1162 19.0241 14.2883 19.1122C15.4605 19.2003 16.6204 18.8252 17.5191 18.0676C17.9238 18.7383 18.4955 19.2926 19.1784 19.6763C18.4546 20.3086 17.8745 21.0886 17.4772 21.9637C17.0799 22.8389 16.8746 23.7889 16.875 24.7501C16.875 25.0484 16.9935 25.3346 17.2045 25.5456C17.4155 25.7565 17.7016 25.8751 18 25.8751C18.2984 25.8751 18.5845 25.7565 18.7955 25.5456C19.0065 25.3346 19.125 25.0484 19.125 24.7501C19.125 23.5566 19.5991 22.412 20.443 21.5681C21.2869 20.7242 22.4315 20.2501 23.625 20.2501C23.9234 20.2501 24.2095 20.1315 24.4205 19.9206C24.6315 19.7096 24.75 19.4234 24.75 19.1251C24.75 18.8267 24.6315 18.5405 24.4205 18.3296C24.2095 18.1186 23.9234 18.0001 23.625 18.0001H21.375C20.7783 18.0001 20.206 17.763 19.784 17.3411C19.3621 16.9191 19.125 16.3468 19.125 15.7501V13.5001H28.125C28.7217 13.5001 29.294 13.7371 29.716 14.1591C30.1379 14.581 30.375 15.1533 30.375 15.7501V18.0001Z" fill="#D32B40"/>
</svg>
