<svg width="44" height="44" viewBox="0 0 44 44" fill="none" xmlns="http://www.w3.org/2000/svg">
<path d="M4.125 17.875H8.25V28.875H5.5C5.13533 28.875 4.78559 29.0199 4.52773 29.2777C4.26987 29.5356 4.125 29.8853 4.125 30.25C4.125 30.6147 4.26987 30.9644 4.52773 31.2223C4.78559 31.4801 5.13533 31.625 5.5 31.625H38.5C38.8647 31.625 39.2144 31.4801 39.4723 31.2223C39.7301 30.9644 39.875 30.6147 39.875 30.25C39.875 29.8853 39.7301 29.5356 39.4723 29.2777C39.2144 29.0199 38.8647 28.875 38.5 28.875H35.75V17.875H39.875C40.1742 17.8747 40.4651 17.7768 40.7036 17.5962C40.9421 17.4156 41.1152 17.1622 41.1967 16.8743C41.2781 16.5864 41.2635 16.2799 41.1549 16.0011C41.0463 15.7223 40.8498 15.4865 40.5952 15.3295L22.7202 4.32953C22.5036 4.19636 22.2543 4.12585 22 4.12585C21.7457 4.12585 21.4964 4.19636 21.2798 4.32953L3.40484 15.3295C3.15017 15.4865 2.95365 15.7223 2.8451 16.0011C2.73654 16.2799 2.72188 16.5864 2.80332 16.8743C2.88476 17.1622 3.05788 17.4156 3.2964 17.5962C3.53492 17.7768 3.82583 17.8747 4.125 17.875ZM11 17.875H16.5V28.875H11V17.875ZM24.75 17.875V28.875H19.25V17.875H24.75ZM33 28.875H27.5V17.875H33V28.875ZM22 7.11391L35.0178 15.125H8.98219L22 7.11391ZM42.625 35.75C42.625 36.1147 42.4801 36.4644 42.2223 36.7223C41.9644 36.9801 41.6147 37.125 41.25 37.125H2.75C2.38533 37.125 2.03559 36.9801 1.77773 36.7223C1.51987 36.4644 1.375 36.1147 1.375 35.75C1.375 35.3853 1.51987 35.0356 1.77773 34.7777C2.03559 34.5199 2.38533 34.375 2.75 34.375H41.25C41.6147 34.375 41.9644 34.5199 42.2223 34.7777C42.4801 35.0356 42.625 35.3853 42.625 35.75Z" fill="#D32B40"/>
</svg>
