<svg width="44" height="44" viewBox="0 0 44 44" fill="none" xmlns="http://www.w3.org/2000/svg">
<path d="M23.376 13.75V21.2214L29.5842 24.9459C29.8969 25.1337 30.1222 25.438 30.2105 25.792C30.2988 26.1459 30.2429 26.5204 30.0551 26.8331C29.8673 27.1458 29.5629 27.3711 29.209 27.4594C28.8551 27.5477 28.4806 27.4918 28.1679 27.304L21.2929 23.179C21.0894 23.0568 20.9211 22.8839 20.8042 22.6773C20.6873 22.4707 20.626 22.2373 20.626 22V13.75C20.626 13.3853 20.7709 13.0356 21.0288 12.7777C21.2866 12.5198 21.6364 12.375 22.001 12.375C22.3657 12.375 22.7154 12.5198 22.9733 12.7777C23.2312 13.0356 23.376 13.3853 23.376 13.75ZM38.501 9.62497C38.1364 9.62497 37.7866 9.76983 37.5288 10.0277C37.2709 10.2856 37.126 10.6353 37.126 11V14.0937C36.0346 12.8287 34.9209 11.6101 33.6679 10.3417C31.3748 8.04837 28.4568 6.48164 25.2784 5.83728C22.1 5.19291 18.8022 5.49948 15.797 6.71868C12.7918 7.93787 10.2126 10.0156 8.38154 12.6923C6.55049 15.369 5.54884 18.526 5.50174 21.7687C5.45464 25.0114 6.36419 28.1961 8.11673 30.9248C9.86927 33.6536 12.3871 35.8054 15.3556 37.1113C18.3241 38.4173 21.6116 38.8195 24.8074 38.2677C28.0031 37.7159 30.9655 36.2346 33.3242 34.0089C33.4555 33.8847 33.5611 33.7359 33.635 33.571C33.7089 33.406 33.7495 33.2281 33.7546 33.0475C33.7597 32.8668 33.7292 32.6869 33.6648 32.518C33.6003 32.3491 33.5033 32.1946 33.3792 32.0632C33.255 31.9319 33.1062 31.8263 32.9413 31.7524C32.7763 31.6785 32.5984 31.6379 32.4177 31.6328C32.2371 31.6277 32.0572 31.6582 31.8883 31.7226C31.7194 31.7871 31.5649 31.8841 31.4335 32.0082C29.4674 33.8612 26.9989 35.0938 24.3363 35.5523C21.6738 36.0107 18.9352 35.6746 16.4625 34.5859C13.9899 33.4972 11.8927 31.7042 10.433 29.4308C8.97326 27.1574 8.21561 24.5043 8.25466 21.8029C8.29371 19.1015 9.12774 16.4714 10.6526 14.2411C12.1774 12.0109 14.3255 10.2793 16.8286 9.2625C19.3317 8.24576 22.0789 7.98895 24.7271 8.52415C27.3752 9.05935 29.807 10.3628 31.7188 12.2718C33.1179 13.6881 34.3434 15.0528 35.5792 16.5H31.626C31.2614 16.5 30.9116 16.6448 30.6538 16.9027C30.3959 17.1606 30.251 17.5103 30.251 17.875C30.251 18.2396 30.3959 18.5894 30.6538 18.8472C30.9116 19.1051 31.2614 19.25 31.626 19.25H38.501C38.8657 19.25 39.2154 19.1051 39.4733 18.8472C39.7312 18.5894 39.876 18.2396 39.876 17.875V11C39.876 10.6353 39.7312 10.2856 39.4733 10.0277C39.2154 9.76983 38.8657 9.62497 38.501 9.62497Z" fill="#D32B40"/>
</svg>
