<svg width="36" height="36" viewBox="0 0 36 36" fill="none" xmlns="http://www.w3.org/2000/svg">
<path d="M31.5 6.75H4.5C3.90326 6.75 3.33097 6.98705 2.90901 7.40901C2.48705 7.83097 2.25 8.40326 2.25 9V27C2.25 27.5967 2.48705 28.169 2.90901 28.591C3.33097 29.0129 3.90326 29.25 4.5 29.25H31.5C32.0967 29.25 32.669 29.0129 33.091 28.591C33.5129 28.169 33.75 27.5967 33.75 27V9C33.75 8.40326 33.5129 7.83097 33.091 7.40901C32.669 6.98705 32.0967 6.75 31.5 6.75ZM31.5 9V12.375H4.5V9H31.5ZM31.5 27H4.5V14.625H31.5V27ZM29.25 23.625C29.25 23.9234 29.1315 24.2095 28.9205 24.4205C28.7095 24.6315 28.4234 24.75 28.125 24.75H23.625C23.3266 24.75 23.0405 24.6315 22.8295 24.4205C22.6185 24.2095 22.5 23.9234 22.5 23.625C22.5 23.3266 22.6185 23.0405 22.8295 22.8295C23.0405 22.6185 23.3266 22.5 23.625 22.5H28.125C28.4234 22.5 28.7095 22.6185 28.9205 22.8295C29.1315 23.0405 29.25 23.3266 29.25 23.625ZM20.25 23.625C20.25 23.9234 20.1315 24.2095 19.9205 24.4205C19.7095 24.6315 19.4234 24.75 19.125 24.75H16.875C16.5766 24.75 16.2905 24.6315 16.0795 24.4205C15.8685 24.2095 15.75 23.9234 15.75 23.625C15.75 23.3266 15.8685 23.0405 16.0795 22.8295C16.2905 22.6185 16.5766 22.5 16.875 22.5H19.125C19.4234 22.5 19.7095 22.6185 19.9205 22.8295C20.1315 23.0405 20.25 23.3266 20.25 23.625Z" fill="#D32B40"/>
</svg>
