<svg width="36" height="36" viewBox="0 0 36 36" fill="none" xmlns="http://www.w3.org/2000/svg">
<path d="M31.7616 14.4591C31.2314 13.905 30.683 13.3341 30.4762 12.832C30.285 12.3722 30.2738 11.61 30.2625 10.8717C30.2414 9.49922 30.2189 7.94391 29.1375 6.8625C28.0561 5.78109 26.5008 5.75859 25.1283 5.7375C24.39 5.72625 23.6278 5.715 23.168 5.52375C22.6673 5.31703 22.095 4.76859 21.5409 4.23844C20.5706 3.30609 19.4681 2.25 18 2.25C16.5319 2.25 15.4308 3.30609 14.4591 4.23844C13.905 4.76859 13.3341 5.31703 12.832 5.52375C12.375 5.715 11.61 5.72625 10.8717 5.7375C9.49922 5.75859 7.94391 5.78109 6.8625 6.8625C5.78109 7.94391 5.76562 9.49922 5.7375 10.8717C5.72625 11.61 5.715 12.3722 5.52375 12.832C5.31703 13.3327 4.76859 13.905 4.23844 14.4591C3.30609 15.4308 2.25 16.5319 2.25 18C2.25 19.4681 3.30609 20.5692 4.23844 21.5409C4.76859 22.095 5.31703 22.6659 5.52375 23.168C5.715 23.6278 5.72625 24.39 5.7375 25.1283C5.75859 26.5008 5.78109 28.0561 6.8625 29.1375C7.94391 30.2189 9.49922 30.2414 10.8717 30.2625C11.61 30.2738 12.3722 30.285 12.832 30.4762C13.3327 30.683 13.905 31.2314 14.4591 31.7616C15.4294 32.6939 16.5319 33.75 18 33.75C19.4681 33.75 20.5692 32.6939 21.5409 31.7616C22.095 31.2314 22.6659 30.683 23.168 30.4762C23.6278 30.285 24.39 30.2738 25.1283 30.2625C26.5008 30.2414 28.0561 30.2189 29.1375 29.1375C30.2189 28.0561 30.2414 26.5008 30.2625 25.1283C30.2738 24.39 30.285 23.6278 30.4762 23.168C30.683 22.6673 31.2314 22.095 31.7616 21.5409C32.6939 20.5692 33.75 19.4681 33.75 18C33.75 16.5319 32.6939 15.4308 31.7616 14.4591ZM30.1373 19.9842C29.4637 20.6873 28.7662 21.4144 28.3964 22.3073C28.042 23.1652 28.0266 24.1453 28.0125 25.0945C27.9984 26.0789 27.983 27.1097 27.5456 27.5456C27.1083 27.9816 26.0845 27.9984 25.0945 28.0125C24.1453 28.0266 23.1652 28.042 22.3073 28.3964C21.4144 28.7662 20.6873 29.4637 19.9842 30.1373C19.2811 30.8109 18.5625 31.5 18 31.5C17.4375 31.5 16.7133 30.8081 16.0158 30.1373C15.3183 29.4666 14.5856 28.7662 13.6927 28.3964C12.8348 28.042 11.8547 28.0266 10.9055 28.0125C9.92109 27.9984 8.89031 27.983 8.45437 27.5456C8.01844 27.1083 8.00156 26.0845 7.9875 25.0945C7.97344 24.1453 7.95797 23.1652 7.60359 22.3073C7.23375 21.4144 6.53625 20.6873 5.86266 19.9842C5.18906 19.2811 4.5 18.5625 4.5 18C4.5 17.4375 5.19187 16.7147 5.86266 16.0158C6.53344 15.3169 7.23375 14.5856 7.60359 13.6927C7.95797 12.8348 7.97344 11.8547 7.9875 10.9055C8.00156 9.92109 8.01703 8.89031 8.45437 8.45437C8.89172 8.01844 9.91547 8.00156 10.9055 7.9875C11.8547 7.97344 12.8348 7.95797 13.6927 7.60359C14.5856 7.23375 15.3127 6.53625 16.0158 5.86266C16.7189 5.18906 17.4375 4.5 18 4.5C18.5625 4.5 19.2867 5.19187 19.9842 5.86266C20.6817 6.53344 21.4144 7.23375 22.3073 7.60359C23.1652 7.95797 24.1453 7.97344 25.0945 7.9875C26.0789 8.00156 27.1097 8.01703 27.5456 8.45437C27.9816 8.89172 27.9984 9.91547 28.0125 10.9055C28.0266 11.8547 28.042 12.8348 28.3964 13.6927C28.7662 14.5856 29.4637 15.3127 30.1373 16.0158C30.8109 16.7189 31.5 17.4375 31.5 18C31.5 18.5625 30.8081 19.2853 30.1373 19.9842ZM16.875 13.5C16.875 12.8325 16.6771 12.18 16.3062 11.625C15.9354 11.0699 15.4083 10.6374 14.7916 10.3819C14.1749 10.1265 13.4963 10.0596 12.8416 10.1898C12.1869 10.3201 11.5855 10.6415 11.1135 11.1135C10.6415 11.5855 10.3201 12.1869 10.1898 12.8416C10.0596 13.4963 10.1265 14.1749 10.3819 14.7916C10.6374 15.4083 11.0699 15.9354 11.625 16.3062C12.18 16.6771 12.8325 16.875 13.5 16.875C14.3951 16.875 15.2536 16.5194 15.8865 15.8865C16.5194 15.2536 16.875 14.3951 16.875 13.5ZM12.375 13.5C12.375 13.2775 12.441 13.06 12.5646 12.875C12.6882 12.69 12.8639 12.5458 13.0695 12.4606C13.275 12.3755 13.5012 12.3532 13.7195 12.3966C13.9377 12.44 14.1382 12.5472 14.2955 12.7045C14.4528 12.8618 14.56 13.0623 14.6034 13.2805C14.6468 13.4988 14.6245 13.725 14.5394 13.9305C14.4542 14.1361 14.31 14.3118 14.125 14.4354C13.94 14.559 13.7225 14.625 13.5 14.625C13.2016 14.625 12.9155 14.5065 12.7045 14.2955C12.4935 14.0845 12.375 13.7984 12.375 13.5ZM22.5 19.125C21.8325 19.125 21.18 19.3229 20.625 19.6938C20.0699 20.0646 19.6374 20.5917 19.3819 21.2084C19.1265 21.8251 19.0596 22.5037 19.1898 23.1584C19.3201 23.8131 19.6415 24.4145 20.1135 24.8865C20.5855 25.3585 21.1869 25.6799 21.8416 25.8102C22.4963 25.9404 23.1749 25.8735 23.7916 25.6181C24.4083 25.3626 24.9354 24.9301 25.3062 24.375C25.6771 23.82 25.875 23.1675 25.875 22.5C25.875 21.6049 25.5194 20.7464 24.8865 20.1135C24.2536 19.4806 23.3951 19.125 22.5 19.125ZM22.5 23.625C22.2775 23.625 22.06 23.559 21.875 23.4354C21.69 23.3118 21.5458 23.1361 21.4606 22.9305C21.3755 22.725 21.3532 22.4988 21.3966 22.2805C21.44 22.0623 21.5472 21.8618 21.7045 21.7045C21.8618 21.5472 22.0623 21.44 22.2805 21.3966C22.4988 21.3532 22.725 21.3755 22.9305 21.4606C23.1361 21.5458 23.3118 21.69 23.4354 21.875C23.559 22.06 23.625 22.2775 23.625 22.5C23.625 22.7984 23.5065 23.0845 23.2955 23.2955C23.0845 23.5065 22.7984 23.625 22.5 23.625ZM24.4209 13.1709L13.1709 24.4209C13.0664 24.5255 12.9423 24.6084 12.8058 24.6649C12.6692 24.7215 12.5228 24.7506 12.375 24.7506C12.2272 24.7506 12.0808 24.7215 11.9442 24.6649C11.8077 24.6084 11.6836 24.5255 11.5791 24.4209C11.4745 24.3164 11.3916 24.1923 11.3351 24.0558C11.2785 23.9192 11.2494 23.7728 11.2494 23.625C11.2494 23.4772 11.2785 23.3308 11.3351 23.1942C11.3916 23.0577 11.4745 22.9336 11.5791 22.8291L22.8291 11.5791C22.9336 11.4745 23.0577 11.3916 23.1942 11.3351C23.3308 11.2785 23.4772 11.2494 23.625 11.2494C23.7728 11.2494 23.9192 11.2785 24.0558 11.3351C24.1923 11.3916 24.3164 11.4745 24.4209 11.5791C24.5255 11.6836 24.6084 11.8077 24.6649 11.9442C24.7215 12.0808 24.7506 12.2272 24.7506 12.375C24.7506 12.5228 24.7215 12.6692 24.6649 12.8058C24.6084 12.9423 24.5255 13.0664 24.4209 13.1709Z" fill="#D32B40"/>
</svg>
