<svg width="44" height="44" viewBox="0 0 44 44" fill="none" xmlns="http://www.w3.org/2000/svg">
<path d="M35.75 6.875H8.25C7.52065 6.875 6.82118 7.16473 6.30546 7.68046C5.78973 8.19618 5.5 8.89565 5.5 9.625V19.25C5.5 28.3113 9.88625 33.8027 13.5661 36.8139C17.5295 40.0555 21.4723 41.1555 21.6442 41.2019C21.8805 41.2662 22.1298 41.2662 22.3661 41.2019C22.538 41.1555 26.4756 40.0555 30.4442 36.8139C34.1138 33.8027 38.5 28.3113 38.5 19.25V9.625C38.5 8.89565 38.2103 8.19618 37.6945 7.68046C37.1788 7.16473 36.4793 6.875 35.75 6.875ZM35.75 19.25C35.75 25.6214 33.4022 30.7931 28.7719 34.6191C26.7563 36.2789 24.4639 37.5705 22 38.4347C19.5683 37.5856 17.3043 36.3168 15.3106 34.6861C10.6253 30.8533 8.25 25.6609 8.25 19.25V9.625H35.75V19.25ZM14.1522 24.3478C13.8942 24.0898 13.7492 23.7399 13.7492 23.375C13.7492 23.0101 13.8942 22.6602 14.1522 22.4022C14.4102 22.1442 14.7601 21.9992 15.125 21.9992C15.4899 21.9992 15.8398 22.1442 16.0978 22.4022L19.25 25.5561L27.9022 16.9022C28.0299 16.7744 28.1816 16.6731 28.3485 16.604C28.5154 16.5348 28.6943 16.4992 28.875 16.4992C29.0557 16.4992 29.2346 16.5348 29.4015 16.604C29.5684 16.6731 29.7201 16.7744 29.8478 16.9022C29.9756 17.0299 30.0769 17.1816 30.146 17.3485C30.2152 17.5154 30.2508 17.6943 30.2508 17.875C30.2508 18.0557 30.2152 18.2346 30.146 18.4015C30.0769 18.5684 29.9756 18.7201 29.8478 18.8478L20.2228 28.4728C20.0951 28.6007 19.9435 28.7021 19.7765 28.7713C19.6096 28.8405 19.4307 28.8761 19.25 28.8761C19.0693 28.8761 18.8904 28.8405 18.7235 28.7713C18.5565 28.7021 18.4049 28.6007 18.2772 28.4728L14.1522 24.3478Z" fill="#D32B40"/>
</svg>
