<svg width="42" height="28" viewBox="0 0 42 28" fill="none" xmlns="http://www.w3.org/2000/svg">
<path d="M41.1314 13.1931C41.0712 13.0573 39.6155 9.82781 36.379 6.59141C32.0667 2.27906 26.62 0 20.625 0C14.63 0 9.18326 2.27906 4.87092 6.59141C1.63451 9.82781 0.171859 13.0625 0.118577 13.1931C0.0403968 13.369 0 13.5593 0 13.7517C0 13.9442 0.0403968 14.1345 0.118577 14.3103C0.178734 14.4461 1.63451 17.6739 4.87092 20.9103C9.18326 25.2209 14.63 27.5 20.625 27.5C26.62 27.5 32.0667 25.2209 36.379 20.9103C39.6155 17.6739 41.0712 14.4461 41.1314 14.3103C41.2096 14.1345 41.25 13.9442 41.25 13.7517C41.25 13.5593 41.2096 13.369 41.1314 13.1931ZM20.625 24.75C15.3347 24.75 10.713 22.8267 6.88701 19.0352C5.31719 17.474 3.98162 15.6938 2.92186 13.75C3.98133 11.806 5.31693 10.0258 6.88701 8.46484C10.713 4.67328 15.3347 2.75 20.625 2.75C25.9153 2.75 30.537 4.67328 34.363 8.46484C35.9358 10.0254 37.2743 11.8056 38.3367 13.75C37.0975 16.0634 31.6989 24.75 20.625 24.75ZM20.625 5.5C18.9933 5.5 17.3982 5.98385 16.0415 6.89038C14.6848 7.7969 13.6274 9.08537 13.003 10.5929C12.3786 12.1004 12.2152 13.7592 12.5335 15.3595C12.8518 16.9598 13.6376 18.4298 14.7914 19.5836C15.9451 20.7374 17.4151 21.5232 19.0155 21.8415C20.6158 22.1598 22.2746 21.9964 23.7821 21.372C25.2896 20.7476 26.5781 19.6902 27.4846 18.3335C28.3911 16.9767 28.875 15.3817 28.875 13.75C28.8727 11.5627 28.0028 9.46556 26.4561 7.91888C24.9094 6.3722 22.8123 5.50227 20.625 5.5ZM20.625 19.25C19.5372 19.25 18.4738 18.9274 17.5693 18.3231C16.6649 17.7187 15.9599 16.8598 15.5436 15.8548C15.1274 14.8498 15.0184 13.7439 15.2307 12.677C15.4429 11.6101 15.9667 10.6301 16.7359 9.86091C17.5051 9.09172 18.4851 8.5679 19.552 8.35568C20.6189 8.14346 21.7247 8.25238 22.7297 8.66866C23.7347 9.08494 24.5937 9.78989 25.1981 10.6944C25.8024 11.5988 26.125 12.6622 26.125 13.75C26.125 15.2087 25.5455 16.6076 24.5141 17.6391C23.4826 18.6705 22.0837 19.25 20.625 19.25Z" fill="#081F9C"/>
</svg>
