<svg width="42" height="33" viewBox="0 0 42 33" fill="none" xmlns="http://www.w3.org/2000/svg">
<path d="M41.1795 1.35486C41.1599 1.01847 41.0174 0.701011 40.7791 0.462746C40.5409 0.224481 40.2234 0.0820003 39.887 0.0623559C30.9908 -0.453269 23.8476 2.25204 20.778 7.31892C18.7498 10.6688 18.7533 14.737 20.7505 18.618C19.6137 19.9713 18.7829 21.5543 18.315 23.2586L15.5186 20.4519C16.8626 17.6452 16.8111 14.7199 15.3467 12.2895C13.078 8.54439 7.84093 6.53689 1.33889 6.91845C1.00251 6.9381 0.685049 7.08057 0.446784 7.31884C0.208519 7.5571 0.066039 7.87457 0.0463947 8.21095C-0.336887 14.713 1.67233 19.95 5.41749 22.2188C6.65338 22.9738 8.07356 23.3735 9.52186 23.3738C10.9276 23.3565 12.3115 23.0234 13.5712 22.3992L17.8681 26.6961V31.6238C17.8681 31.9884 18.013 32.3382 18.2708 32.596C18.5287 32.8539 18.8784 32.9988 19.2431 32.9988C19.6078 32.9988 19.9575 32.8539 20.2154 32.596C20.4732 32.3382 20.6181 31.9884 20.6181 31.6238V26.5552C20.612 24.3677 21.3564 22.2443 22.727 20.5395C24.4955 21.4638 26.4569 21.9584 28.4522 21.9833C30.3813 21.9895 32.2745 21.4625 33.923 20.4605C38.9898 17.3942 41.702 10.2511 41.1795 1.35486ZM6.83546 19.8675C4.1989 18.2708 2.70702 14.4913 2.74311 9.62376C7.61061 9.58251 11.3901 11.0795 12.9869 13.7161C13.8205 15.0911 13.9562 16.6947 13.4097 18.3464L9.21421 14.151C8.95425 13.904 8.60809 13.7683 8.24954 13.7729C7.891 13.7775 7.54843 13.922 7.29488 14.1755C7.04132 14.4291 6.89685 14.7716 6.89226 15.1302C6.88767 15.4887 7.02332 15.8349 7.2703 16.0949L11.4658 20.2903C9.81405 20.8369 8.21218 20.7011 6.83546 19.8675ZM32.4981 18.111C30.195 19.5049 27.488 19.6114 24.738 18.4547L33.9659 9.22501C34.2129 8.96505 34.3486 8.6189 34.344 8.26035C34.3394 7.9018 34.1949 7.55923 33.9414 7.30568C33.6878 7.05213 33.3452 6.90766 32.9867 6.90307C32.6281 6.89847 32.282 7.03413 32.022 7.28111L22.7923 16.4988C21.6305 13.7488 21.7353 11.04 23.1361 8.73861C25.532 4.78548 31.2142 2.58204 38.4897 2.7522C38.6547 10.026 36.4547 15.715 32.4981 18.111Z" fill="#081F9C"/>
</svg>
